<svg width="16" height="16" viewBox="0 0 16 16" fill="none" xmlns="http://www.w3.org/2000/svg">
<path fill-rule="evenodd" clip-rule="evenodd" d="M7.99792 0C8.06252 0 8.11489 0.0523801 8.11489 0.116913V0.239364C8.11489 0.303897 8.06252 0.356277 7.99792 0.356277H7.86366V0.750704C11.9643 0.876693 15.25 4.24071 15.25 8.37297C15.25 12.5856 11.8364 16 7.62542 16C3.41441 16 0 12.5856 0 8.37297C0 4.24102 3.28599 0.877078 7.38634 0.750781V0.356277H7.25208C7.18748 0.356277 7.13519 0.303897 7.13519 0.239364V0.116913C7.13519 0.0523801 7.18748 0 7.25208 0H7.99792ZM7.81606 1.75062V2.41987C7.81606 2.5254 7.73054 2.61093 7.62504 2.61093C7.51953 2.61093 7.43394 2.5254 7.43394 2.41987V1.75062C3.92664 1.85038 1.10312 4.67406 1.00377 8.18221H1.67287C1.77838 8.18221 1.86397 8.26775 1.86397 8.37328C1.86397 8.47888 1.77838 8.56441 1.67287 8.56441H1.00377C1.10358 12.0723 3.92687 14.8962 7.43394 14.996V14.3268C7.43394 14.2212 7.51953 14.1356 7.62504 14.1356C7.73054 14.1356 7.81606 14.2212 7.81606 14.3268V14.996C11.3234 14.8966 14.1464 12.0725 14.2462 8.56441H13.5771C13.4716 8.56441 13.3861 8.47888 13.3861 8.37328C13.3861 8.26775 13.4716 8.18221 13.5771 8.18221H14.2462C14.1469 4.67375 11.3237 1.84999 7.81606 1.75062ZM7.62499 8.01702C7.8217 8.01702 7.98119 8.17655 7.98119 8.3733C7.98119 8.3936 7.9785 8.41314 7.97527 8.43245L10.2411 10.4819C10.2992 10.5345 10.3412 10.6026 10.3621 10.6782L10.3927 10.7894C10.4077 10.8435 10.3613 10.8948 10.306 10.8854L10.1922 10.866C10.1149 10.8529 10.043 10.8179 9.98481 10.7653L7.71858 8.7155C7.68859 8.72381 7.6576 8.72958 7.62499 8.72958C7.42836 8.72958 7.26879 8.57005 7.26879 8.3733C7.26879 8.17655 7.42836 8.01702 7.62499 8.01702Z" fill="white"/>
</svg>
